<svg version="1.1" id="Layer_1" xmlns="http://www.w3.org/2000/svg" xmlns:xlink="http://www.w3.org/1999/xlink" x="0px" y="0px"
	 width="100%" viewBox="0 0 154 148" enable-background="new 0 0 154 148" xml:space="preserve">
<path fill="#FEFFFF" opacity="1.000000" stroke="none" 
	d="
M155.000000,54.000000 
	C155.000000,86.000000 155.000000,117.500000 155.000000,149.000000 
	C103.666664,149.000000 52.333332,149.000000 1.000000,149.000000 
	C1.000000,99.666664 1.000000,50.333332 1.000000,1.000000 
	C52.333332,1.000000 103.666664,1.000000 155.000000,1.000000 
	C155.000000,18.500000 155.000000,36.000000 155.000000,54.000000 
M136.583923,59.652134 
	C136.320648,59.088024 136.057388,58.523911 135.749741,57.397804 
	C135.695312,57.028114 135.640869,56.658421 135.798416,55.552525 
	C135.116699,53.969326 134.434967,52.386124 133.738266,50.286160 
	C133.684677,49.948006 133.631073,49.609852 133.764160,48.518726 
	C132.741318,45.228779 132.258575,41.616631 130.542572,38.740200 
	C128.852631,35.907448 125.912773,33.820362 123.033157,31.013443 
	C122.212791,30.405096 121.392418,29.796751 120.808258,28.599384 
	C120.550049,28.054415 120.291847,27.509445 120.042763,26.229805 
	C117.457184,21.238352 113.637962,17.887726 107.986000,16.996149 
	C107.986000,16.996149 107.909813,17.107645 107.938217,16.357500 
	C106.461906,15.739611 104.985596,15.121720 102.974037,14.423089 
	C102.630035,14.315141 102.286026,14.207191 101.937767,13.358021 
	C97.631546,11.549263 93.325333,9.740505 88.890488,7.244462 
	C87.881859,6.864522 86.873222,6.484581 85.111496,6.098436 
	C83.408714,6.866238 81.705925,7.634040 79.194771,8.588831 
	C78.674965,8.432473 78.155159,8.276114 77.073174,7.947221 
	C74.684601,7.321900 72.296036,6.696579 69.116547,6.070004 
	C67.789612,6.081628 66.462677,6.093253 64.408409,6.040553 
	C63.598732,6.668956 62.789059,7.297360 61.271030,8.046377 
	C59.837353,9.013399 58.403675,9.980421 56.168888,10.951052 
	C53.493088,11.688505 50.817287,12.425959 47.412281,13.082646 
	C46.647926,13.374800 45.844650,13.592730 45.125008,13.970139 
	C32.484165,20.599522 23.941374,31.140654 17.864267,43.666664 
	C14.496208,50.608841 12.551554,58.124596 15.019291,66.800270 
	C15.013330,67.866844 15.007368,68.933426 14.409899,70.577049 
	C14.637514,76.668556 14.865129,82.760056 15.037527,89.592316 
	C15.703349,90.392189 16.369171,91.192062 17.066641,92.702873 
	C17.078465,93.414383 17.090288,94.125885 17.033028,95.644783 
	C18.429956,103.202965 24.453205,107.535217 29.093781,112.817307 
	C29.401508,113.167572 30.357935,112.947929 31.538401,113.329933 
	C32.362186,113.873466 33.185974,114.417007 34.077831,115.679237 
	C34.975842,116.390945 35.873852,117.102654 36.771862,117.814362 
	C37.491455,116.502327 38.211048,115.190292 38.932549,113.251144 
	C38.953403,112.833611 38.974258,112.416077 39.749519,111.912788 
	C40.832870,109.922394 42.784779,107.960945 42.852219,105.936707 
	C43.178913,96.130920 43.318363,86.293861 42.875362,76.497231 
	C42.625652,70.975037 44.176003,66.169853 47.175728,62.018970 
	C49.627777,58.625938 52.802116,54.686344 56.462772,53.519604 
	C60.565926,52.211826 65.599213,53.580673 70.172585,54.195473 
	C71.078369,54.317234 72.656586,56.866596 72.366219,57.339466 
	C68.176094,64.163139 68.917839,71.690094 69.065948,79.085136 
	C69.140808,82.822739 70.428299,86.039703 75.805840,86.257492 
	C77.533020,86.516113 79.260201,86.774734 80.913094,87.772911 
	C80.313568,90.234589 79.714035,92.696274 79.117065,96.075218 
	C79.115776,105.331482 79.114494,114.587738 79.033501,124.628174 
	C79.701797,125.745338 80.370094,126.862511 81.689392,128.331985 
	C84.114632,128.844757 86.539864,129.357529 89.277161,130.372528 
	C89.854584,129.924561 90.432007,129.476608 91.748123,129.009949 
	C92.484344,128.960953 93.220573,128.911957 94.332611,129.403671 
	C97.241562,128.591873 100.150505,127.780075 103.984421,126.981552 
	C109.986938,126.981255 115.989449,126.980965 122.450890,127.534355 
	C124.476936,126.589134 127.566765,126.165756 128.333496,124.602768 
	C130.831039,119.511528 127.898415,115.530022 124.279968,112.685539 
	C125.275795,109.986816 126.056023,107.872375 126.856163,105.169876 
	C126.879944,104.776146 126.903717,104.382416 127.674149,103.869576 
	C129.715546,100.110756 128.283203,96.263130 124.000000,94.000000 
	C124.000000,94.000000 124.000000,93.999931 124.004272,93.166267 
	C124.002632,91.776566 124.000992,90.386864 124.894707,88.977577 
	C128.325348,88.222252 132.861465,91.201920 135.564835,85.942123 
	C135.715668,85.296822 135.866501,84.651520 136.008438,83.264809 
	C136.032700,81.506454 136.056946,79.748093 136.045059,77.263451 
	C135.903931,76.805763 135.762802,76.348068 135.850525,75.002663 
	C135.789383,70.703171 135.728226,66.403671 135.985428,61.445595 
	C136.040955,60.963055 136.096481,60.480518 136.583923,59.652134 
z"/>
<path fill="#418C53" opacity="1.000000" stroke="none" 
	d="
M77.635353,8.119757 
	C78.155159,8.276114 78.674965,8.432473 79.717636,8.815619 
	C80.868240,9.280822 81.495972,9.519236 82.125420,10.129405 
	C83.605804,12.887998 85.451248,13.823775 88.370895,11.987476 
	C89.225273,11.880411 89.706749,11.770973 90.543671,11.744214 
	C91.601044,12.018084 92.302963,12.209275 92.994049,12.746872 
	C94.582405,14.354072 96.066414,15.810822 97.805725,16.833271 
	C101.036819,18.732656 104.817955,19.892536 107.651901,22.230749 
	C113.671593,27.197416 119.230659,32.722366 125.018982,38.316540 
	C125.131073,39.007801 125.202736,39.400970 125.207581,40.176994 
	C126.449928,43.890667 127.846710,47.190147 129.051620,50.558262 
	C132.501038,60.200382 134.992554,69.958252 130.922012,80.038376 
	C130.425858,81.267021 128.896606,82.687309 127.664246,82.885010 
	C124.973694,83.316658 122.166054,83.018494 119.182213,83.018494 
	C119.796860,79.114540 120.291542,75.972580 120.818657,72.520897 
	C120.828209,71.793266 120.805344,71.375359 121.094177,70.746262 
	C120.602814,67.357559 119.799736,64.180038 118.757965,60.966309 
	C118.519272,60.930103 118.040199,60.990421 118.007095,60.664162 
	C117.633003,59.571438 117.292023,58.804977 117.009216,57.699142 
	C116.728806,56.550995 116.390228,55.742226 116.043152,54.611641 
	C115.698547,53.661427 115.362434,53.033031 115.026321,52.404633 
	C114.665588,52.820705 114.304848,53.236782 113.658264,53.574516 
	C112.326523,52.579735 111.280617,51.663296 110.183273,50.432045 
	C109.086388,49.422691 108.040962,48.728153 106.721924,47.952469 
	C106.082863,47.765305 105.717422,47.659290 105.254616,47.199944 
	C103.368126,46.362652 101.578995,45.878693 99.341858,45.316723 
	C84.334618,45.296364 69.775383,45.354019 54.829643,45.262733 
	C53.350834,45.142761 52.258533,45.171738 50.832680,45.165627 
	C49.986641,45.737160 49.474155,46.343781 48.607269,46.997086 
	C47.115971,47.655209 45.898350,48.153267 44.855000,48.896107 
	C36.795597,54.634186 34.305809,62.988743 34.181870,72.311821 
	C34.053764,81.948311 34.177982,91.587944 34.111607,101.225655 
	C34.100468,102.843826 33.682339,104.459190 33.441891,106.148712 
	C32.298618,105.880089 31.861687,105.914436 31.689636,105.717438 
	C20.583891,93.001709 16.540760,78.037880 18.687437,61.571308 
	C19.596914,54.594959 22.158339,47.833973 24.317638,40.944088 
	C27.771292,36.601330 30.876253,32.289581 34.188145,27.920937 
	C34.395077,27.864042 34.815620,27.778149 35.172508,27.821239 
	C37.392815,25.950275 39.256233,24.036219 41.488392,22.083183 
	C47.173008,19.660746 52.526939,17.356071 57.770508,14.822950 
	C58.741905,14.353677 59.268169,12.962975 60.194496,11.893438 
	C60.389111,11.789333 60.799431,11.626590 61.149529,11.771727 
	C62.000675,11.937733 62.501728,11.958600 63.220406,12.245975 
	C65.340965,11.514443 67.243896,10.516406 69.410667,9.306869 
	C69.810738,8.915755 69.946968,8.736142 70.504082,8.671086 
	C73.161758,8.563682 75.398560,8.341720 77.635353,8.119757 
z"/>
<path fill="#F7F9F8" opacity="1.000000" stroke="none" 
	d="
M75.140060,85.930611 
	C70.428299,86.039703 69.140808,82.822739 69.065948,79.085136 
	C68.917839,71.690094 68.176094,64.163139 72.366219,57.339466 
	C72.656586,56.866596 71.078369,54.317234 70.172585,54.195473 
	C65.599213,53.580673 60.565926,52.211826 56.462772,53.519604 
	C52.802116,54.686344 49.627777,58.625938 47.175728,62.018970 
	C44.176003,66.169853 42.625652,70.975037 42.875362,76.497231 
	C43.318363,86.293861 43.178913,96.130920 42.852219,105.936707 
	C42.784779,107.960945 40.832870,109.922394 39.365669,111.487198 
	C39.997746,92.953033 36.597427,74.625710 41.724236,56.518192 
	C41.775024,56.318165 41.921677,55.932346 42.278549,55.922478 
	C47.324127,53.601562 51.830475,49.949108 56.742565,49.281357 
	C64.923912,48.169189 73.368790,48.851734 81.693039,49.100986 
	C82.847107,49.135544 83.946136,51.007687 84.792496,52.193054 
	C84.293106,53.156796 84.071877,53.956627 83.614960,54.979458 
	C82.273232,56.151131 81.167206,57.099804 79.691650,58.053555 
	C78.379730,59.116928 76.759285,60.085365 76.605186,61.248138 
	C75.617661,68.699463 74.919975,76.190514 74.231995,83.678139 
	C74.166122,84.395103 74.820206,85.178207 75.140060,85.930611 
z"/>
<path fill="#CCE1D4" opacity="1.000000" stroke="none" 
	d="
M85.070648,52.029140 
	C83.946136,51.007687 82.847107,49.135544 81.693039,49.100986 
	C73.368790,48.851734 64.923912,48.169189 56.742565,49.281357 
	C51.830475,49.949108 47.324127,53.601562 42.326508,55.581867 
	C44.332012,53.177982 46.533077,50.955936 48.997456,49.079758 
	C50.899040,47.632050 53.131050,46.618343 55.216148,45.411674 
	C69.775383,45.354019 84.334618,45.296364 99.467979,45.627594 
	C101.812065,46.528748 103.582024,47.041012 105.351982,47.553276 
	C105.717422,47.659290 106.082863,47.765305 106.740768,48.301434 
	C108.100403,49.403320 109.167557,50.075089 110.234718,50.746857 
	C111.280617,51.663296 112.326523,52.579735 113.796234,53.839386 
	C114.429779,54.513256 114.639519,54.843910 114.866806,55.517349 
	C115.573250,56.586258 116.262146,57.312389 116.951042,58.038517 
	C117.292023,58.804977 117.633003,59.571438 117.759773,60.793411 
	C117.741844,61.827274 117.938126,62.405617 118.133492,63.340977 
	C118.224358,64.404449 118.316139,65.110909 118.278076,66.265892 
	C118.224449,68.877136 118.300667,71.039864 118.298264,73.595169 
	C117.775230,75.953217 117.330818,77.918663 116.553894,79.962296 
	C114.735870,81.634705 112.301758,83.166153 115.929642,85.049942 
	C115.972359,85.004044 115.907219,85.110847 116.016525,85.489166 
	C120.086990,85.952179 124.048141,86.036865 128.339203,86.136810 
	C129.109085,86.169449 129.549088,86.186836 130.182007,86.419495 
	C131.187729,86.044960 132.000519,85.455147 132.903656,84.539734 
	C133.278168,83.136497 133.562347,82.058868 134.131714,80.822693 
	C134.971680,79.772667 135.526443,78.881203 136.081207,77.989738 
	C136.056946,79.748093 136.032700,81.506454 135.754700,83.790268 
	C135.325394,84.875229 135.149857,85.434731 134.974304,85.994225 
	C132.861465,91.201920 128.325348,88.222252 123.990982,88.972488 
	C118.380371,88.868073 113.266861,90.194084 110.145126,84.826225 
	C109.767174,84.176331 108.092674,84.280449 106.999359,83.716507 
	C106.962746,83.185783 106.945839,82.973656 107.173462,82.599274 
	C107.934998,81.622795 108.452003,80.808548 109.318520,79.948738 
	C110.456955,77.606209 111.245888,75.309242 112.016556,72.571823 
	C112.033829,70.074699 112.069351,68.018036 112.340958,65.764297 
	C112.114288,64.703339 111.651543,63.839451 111.068726,62.633095 
	C108.635689,59.505714 106.322723,56.720795 103.957146,53.607475 
	C102.277084,52.831615 100.649643,52.384159 98.686829,51.960045 
	C97.907593,51.929516 97.463722,51.875641 96.937950,51.483486 
	C95.230408,51.365887 93.604767,51.586563 91.623596,51.884945 
	C90.301697,52.040577 89.335320,52.118504 87.956284,52.135262 
	C86.719292,52.059105 85.894974,52.044121 85.070648,52.029140 
z"/>
<path fill="#8CBD9D" opacity="1.000000" stroke="none" 
	d="
M54.829643,45.262730 
	C53.131050,46.618343 50.899040,47.632050 48.997456,49.079758 
	C46.533077,50.955936 44.332012,53.177982 41.969631,55.591736 
	C41.921677,55.932346 41.775024,56.318165 41.407726,56.664658 
	C39.702553,61.841774 37.460552,66.625893 37.209194,71.512413 
	C36.630779,82.756981 37.033886,94.051369 37.012619,105.325500 
	C36.999104,112.490852 36.873947,112.560020 30.167294,109.863091 
	C30.150539,109.861992 30.134083,109.841499 30.091459,109.536987 
	C29.463541,108.730850 28.878244,108.229218 28.246365,107.530319 
	C28.199781,107.333054 28.058283,106.953178 28.034073,106.621567 
	C27.107271,105.434761 26.204678,104.579575 25.250143,103.442207 
	C25.109001,102.788254 25.019798,102.416481 24.930143,101.689819 
	C22.199499,95.057983 19.093433,88.909988 16.879292,82.456001 
	C15.538959,78.549080 15.580644,74.168030 15.001407,70.000000 
	C15.007368,68.933426 15.013330,67.866844 15.293062,66.102646 
	C15.712873,63.271824 15.660913,61.102619 16.041227,59.012047 
	C17.296499,52.111912 18.138290,45.013798 23.752670,40.073551 
	C23.897137,40.568409 23.933043,40.771755 23.968946,40.975101 
	C22.158339,47.833973 19.596914,54.594959 18.687437,61.571308 
	C16.540760,78.037880 20.583891,93.001709 31.689636,105.717438 
	C31.861687,105.914436 32.298618,105.880089 33.441891,106.148712 
	C33.682339,104.459190 34.100468,102.843826 34.111607,101.225655 
	C34.177982,91.587944 34.053764,81.948311 34.181870,72.311821 
	C34.305809,62.988743 36.795597,54.634186 44.855000,48.896107 
	C45.898350,48.153267 47.115971,47.655209 48.926064,46.987228 
	C50.121586,46.354034 50.643909,45.777370 51.166233,45.200710 
	C52.258533,45.171738 53.350834,45.142761 54.829643,45.262730 
z"/>
<path fill="#F7FAF8" opacity="1.000000" stroke="none" 
	d="
M107.019081,84.035103 
	C108.092674,84.280449 109.767174,84.176331 110.145126,84.826225 
	C113.266861,90.194084 118.380371,88.868073 123.543304,88.982285 
	C124.000992,90.386864 124.002632,91.776566 123.674004,93.443375 
	C121.139244,92.948318 118.934746,92.176170 116.330612,91.349991 
	C114.046745,91.340477 112.162537,91.384995 109.889832,91.309769 
	C105.035912,90.960831 102.151337,93.379974 101.074150,97.325493 
	C100.517128,99.365715 100.780472,102.761719 102.087677,103.857040 
	C103.364868,104.927223 106.499260,104.111534 108.708267,103.624374 
	C110.214081,103.292290 111.530540,102.101593 114.133774,100.602615 
	C113.138252,106.695480 109.695709,108.938599 106.468964,111.330826 
	C99.266136,116.670792 98.451324,120.384270 103.059456,126.968277 
	C100.150505,127.780075 97.241562,128.591873 94.191666,128.768768 
	C94.670944,126.308731 95.832726,124.478104 95.814285,122.659447 
	C95.747246,116.049049 95.337837,109.439568 94.950981,102.835983 
	C94.739571,99.227318 94.314178,95.631180 93.991699,91.648628 
	C93.997871,90.507278 93.997643,89.746689 94.416840,88.970146 
	C98.897209,87.314491 102.958145,85.674797 107.019081,84.035103 
z"/>
<path fill="#BFDACA" opacity="1.000000" stroke="none" 
	d="
M103.521942,126.974915 
	C98.451324,120.384270 99.266136,116.670792 106.468964,111.330826 
	C109.695709,108.938599 113.138252,106.695480 114.133774,100.602615 
	C111.530540,102.101593 110.214081,103.292290 108.708267,103.624374 
	C106.499260,104.111534 103.364868,104.927223 102.087677,103.857040 
	C100.780472,102.761719 100.517128,99.365715 101.074150,97.325493 
	C102.151337,93.379974 105.035912,90.960831 109.769005,91.572075 
	C109.358932,92.641068 108.681206,93.328003 107.687286,94.054077 
	C106.600594,94.754478 105.830093,95.415733 104.770615,96.152939 
	C104.185059,97.159325 103.888489,98.089775 103.610687,99.374374 
	C103.705505,100.194580 103.781555,100.660629 103.921112,101.452499 
	C105.037041,101.577965 106.089455,101.377609 107.095741,101.115952 
	C107.049606,101.054649 107.172302,101.146797 107.518204,101.087906 
	C109.216751,100.092125 110.448769,98.809883 111.945999,98.286896 
	C115.582962,97.016472 117.373878,100.407166 115.865852,106.273079 
	C113.241028,109.235909 110.886398,112.005714 108.256104,114.927994 
	C106.360237,117.359055 104.740021,119.637634 103.150688,122.326218 
	C109.596909,123.058647 116.010910,123.481056 122.429413,123.566719 
	C123.164368,123.576523 123.924446,121.703468 124.672882,120.703430 
	C123.406235,119.804268 122.205956,118.784950 120.854828,118.038765 
	C119.420219,117.246498 117.842491,116.713387 116.327263,116.067108 
	C117.500038,114.663536 118.672821,113.259964 119.902374,112.232590 
	C121.125633,113.821098 122.114082,115.311172 123.491661,116.194153 
	C127.791054,118.949905 128.121658,121.793968 124.273369,125.148567 
	C123.538765,125.788933 122.753738,126.371460 121.991974,126.980667 
	C115.989449,126.980965 109.986938,126.981255 103.521942,126.974915 
z"/>
<path fill="#C4DDCD" opacity="1.000000" stroke="none" 
	d="
M93.985291,92.029396 
	C94.314178,95.631180 94.739571,99.227318 94.950981,102.835983 
	C95.337837,109.439568 95.747246,116.049049 95.814285,122.659447 
	C95.832726,124.478104 94.670944,126.308731 94.003761,128.498413 
	C93.220573,128.911957 92.484344,128.960953 91.081390,129.005478 
	C89.931465,129.290771 89.448288,129.580536 88.965103,129.870300 
	C86.539864,129.357529 84.114632,128.844757 81.358849,127.782700 
	C80.389938,126.103615 79.751572,124.973808 79.113213,123.844002 
	C79.114494,114.587738 79.115776,105.331482 79.467392,95.512573 
	C82.839066,90.535225 87.201797,89.635880 93.985291,92.029396 
M90.210983,93.026993 
	C86.362816,92.671196 83.090714,93.075851 83.109589,98.137283 
	C83.139259,106.093964 83.113571,114.050835 83.138664,122.007545 
	C83.147491,124.805855 84.058945,127.247078 87.337776,126.803871 
	C90.185410,126.418945 93.221252,125.923462 93.026939,121.500229 
	C92.692574,113.888763 92.983131,106.251381 92.754501,98.632591 
	C92.700066,96.818596 91.630745,95.035057 90.210983,93.026993 
z"/>
<path fill="#61A376" opacity="1.000000" stroke="none" 
	d="
M116.886398,79.884109 
	C117.330818,77.918663 117.775230,75.953217 118.595901,73.545288 
	C119.576851,73.012077 120.181541,72.921349 120.786232,72.830612 
	C120.291542,75.972580 119.796860,79.114540 119.182213,83.018494 
	C122.166054,83.018494 124.973694,83.316658 127.664246,82.885010 
	C128.896606,82.687309 130.425858,81.267021 130.922012,80.038376 
	C134.992554,69.958252 132.501038,60.200382 129.051620,50.558262 
	C127.846710,47.190147 126.449928,43.890667 125.528328,40.231209 
	C126.572510,39.961330 127.229134,40.020092 127.955414,40.357895 
	C128.104172,41.012089 128.183258,41.387245 128.201340,42.140717 
	C129.628250,45.348476 131.116150,48.177917 132.719437,51.389656 
	C133.001938,53.085457 133.169052,54.398968 133.246338,56.015373 
	C133.614868,56.880569 134.073212,57.442867 134.652344,58.328468 
	C134.820526,59.108105 134.867874,59.564434 134.700317,60.176304 
	C134.879288,60.922623 135.273178,61.513401 135.667068,62.104179 
	C135.728226,66.403671 135.789383,70.703171 135.436661,75.530807 
	C134.630707,77.699715 134.238617,79.340485 133.846527,80.981247 
	C133.562347,82.058868 133.278168,83.136497 132.572052,84.568405 
	C131.429749,85.349869 130.709412,85.777039 129.989075,86.204208 
	C129.549088,86.186836 129.109085,86.169449 128.068359,85.816925 
	C123.614151,85.358139 119.760681,85.234489 115.907219,85.110847 
	C115.907219,85.110847 115.972359,85.004044 115.984482,84.668381 
	C116.293205,82.849846 116.589798,81.366982 116.886398,79.884109 
z"/>
<path fill="#BED9C8" opacity="1.000000" stroke="none" 
	d="
M106.999359,83.716507 
	C102.958145,85.674797 98.897209,87.314491 94.003098,88.953484 
	C89.109077,88.312973 85.048233,87.673164 80.987381,87.033356 
	C79.260201,86.774734 77.533020,86.516113 75.472946,86.094055 
	C74.820206,85.178207 74.166122,84.395103 74.231995,83.678139 
	C74.919975,76.190514 75.617661,68.699463 76.605186,61.248138 
	C76.759285,60.085365 78.379730,59.116928 79.703331,58.448555 
	C79.135323,65.947845 78.050049,73.044594 77.388634,80.180634 
	C77.293221,81.210037 79.090004,83.217819 80.258484,83.433640 
	C89.164291,85.078514 98.202850,88.776245 106.928932,82.761520 
	C106.945839,82.973656 106.962746,83.185783 106.999359,83.716507 
z"/>
<path fill="#CCE1D4" opacity="1.000000" stroke="none" 
	d="
M23.644114,39.782040 
	C18.138290,45.013798 17.296499,52.111912 16.041227,59.012047 
	C15.660913,61.102619 15.712873,63.271824 15.289503,65.702682 
	C12.551554,58.124596 14.496208,50.608841 17.864267,43.666664 
	C23.941374,31.140654 32.484165,20.599522 45.125008,13.970139 
	C45.844650,13.592730 46.647926,13.374800 47.705547,13.435999 
	C47.304684,14.833366 46.610554,15.877381 45.613682,16.984848 
	C44.580826,17.431446 43.850712,17.814592 42.773647,18.163277 
	C41.245766,19.382370 40.064835,20.635923 38.683052,21.946110 
	C38.482197,22.002745 38.108406,22.188435 37.762840,22.168829 
	C35.583153,24.073521 33.749031,25.997820 31.653439,28.103298 
	C30.539253,29.467329 29.686539,30.650179 28.512257,31.918842 
	C27.518700,33.038811 26.846710,34.072971 26.004059,35.392708 
	C25.103638,37.046204 24.373875,38.414124 23.644114,39.782040 
z"/>
<path fill="#CCE1D4" opacity="1.000000" stroke="none" 
	d="
M30.184046,109.864189 
	C36.873947,112.560020 36.999104,112.490852 37.012619,105.325500 
	C37.033886,94.051369 36.630779,82.756981 37.209194,71.512413 
	C37.460552,66.625893 39.702553,61.841774 41.356937,56.864685 
	C36.597427,74.625710 39.997746,92.953033 38.988464,111.530075 
	C38.974258,112.416077 38.953403,112.833611 38.576439,113.633102 
	C36.816807,114.330215 35.413284,114.645386 34.009758,114.960548 
	C33.185974,114.417007 32.362186,113.873466 31.148609,112.855156 
	C30.567226,111.541649 30.375637,110.702919 30.184046,109.864189 
z"/>
<path fill="#61A376" opacity="1.000000" stroke="none" 
	d="
M124.978561,38.018452 
	C119.230659,32.722366 113.671593,27.197416 107.651901,22.230749 
	C104.817955,19.892536 101.036819,18.732656 97.805725,16.833271 
	C96.066414,15.810822 94.582405,14.354072 93.148834,12.500615 
	C96.190315,12.638383 99.066170,13.368813 101.942024,14.099243 
	C102.286026,14.207191 102.630035,14.315141 103.372681,14.776745 
	C105.150818,15.789481 106.530319,16.448563 107.909813,17.107645 
	C107.909813,17.107645 107.986000,16.996149 107.929832,17.381411 
	C108.574257,18.522408 109.274857,19.278145 110.015656,20.362318 
	C110.743050,21.090652 111.430252,21.490551 112.377869,22.037945 
	C113.408478,22.814819 114.178665,23.444197 114.989639,24.413879 
	C116.877647,26.232262 118.724846,27.710333 120.572044,29.188406 
	C121.392418,29.796751 122.212791,30.405096 123.317871,31.554380 
	C124.114006,33.353603 124.625443,34.611885 125.085258,36.226318 
	C125.015282,37.061131 124.996918,37.539791 124.978561,38.018452 
z"/>
<path fill="#CCE1D4" opacity="1.000000" stroke="none" 
	d="
M14.705652,70.288528 
	C15.580644,74.168030 15.538959,78.549080 16.879292,82.456001 
	C19.093433,88.909988 22.199499,95.057983 24.584805,101.648422 
	C21.860647,99.587074 19.481380,97.212234 17.102112,94.837395 
	C17.090288,94.125885 17.078465,93.414383 17.047550,91.993530 
	C16.383221,90.473312 15.737985,89.662437 15.092747,88.851562 
	C14.865129,82.760056 14.637514,76.668556 14.705652,70.288528 
z"/>
<path fill="#F7FAF8" opacity="1.000000" stroke="none" 
	d="
M122.221436,127.257515 
	C122.753738,126.371460 123.538765,125.788933 124.273369,125.148567 
	C128.121658,121.793968 127.791054,118.949905 123.491661,116.194153 
	C122.114082,115.311172 121.125633,113.821098 120.133995,112.072403 
	C120.556404,111.035934 120.803970,110.535835 121.393570,110.002243 
	C123.435822,108.565140 125.136032,107.161537 126.836250,105.757927 
	C126.056023,107.872375 125.275795,109.986816 124.279968,112.685539 
	C127.898415,115.530022 130.831039,119.511528 128.333496,124.602768 
	C127.566765,126.165756 124.476936,126.589134 122.221436,127.257515 
z"/>
<path fill="#BFDACA" opacity="1.000000" stroke="none" 
	d="
M126.846207,105.463898 
	C125.136032,107.161537 123.435822,108.565140 121.295097,109.696167 
	C120.772507,109.225800 120.690414,109.028015 120.790146,108.485611 
	C124.863953,102.395676 124.155861,96.780891 119.173485,94.343964 
	C118.295486,93.169044 117.512871,92.286530 116.730255,91.404015 
	C118.934746,92.176170 121.139244,92.948318 123.671867,93.860199 
	C124.000000,93.999931 124.000000,94.000000 124.036194,94.365173 
	C125.024086,97.816452 125.975784,100.902573 126.927490,103.988686 
	C126.903717,104.382416 126.879944,104.776146 126.846207,105.463898 
z"/>
<path fill="#F7F9F8" opacity="1.000000" stroke="none" 
	d="
M17.067570,95.241089 
	C19.481380,97.212234 21.860647,99.587074 24.585255,102.003311 
	C25.019798,102.416481 25.109001,102.788254 25.177525,103.803909 
	C26.123991,105.282921 27.091137,106.118050 28.058283,106.953178 
	C28.058283,106.953178 28.199781,107.333054 28.185429,107.881248 
	C28.825411,108.900131 29.479746,109.370819 30.134081,109.841507 
	C30.134083,109.841499 30.150539,109.861992 30.167294,109.863091 
	C30.375637,110.702919 30.567226,111.541649 30.885723,112.686874 
	C30.357935,112.947929 29.401508,113.167572 29.093781,112.817307 
	C24.453205,107.535217 18.429956,103.202965 17.067570,95.241089 
z"/>
<path fill="#F1F6F3" opacity="1.000000" stroke="none" 
	d="
M80.950241,87.403137 
	C85.048233,87.673164 89.109077,88.312973 93.583664,88.969444 
	C93.997643,89.746689 93.997871,90.507278 93.991699,91.648628 
	C87.201797,89.635880 82.839066,90.535225 79.466110,95.053940 
	C79.714035,92.696274 80.313568,90.234589 80.950241,87.403137 
z"/>
<path fill="#CCE1D4" opacity="1.000000" stroke="none" 
	d="
M125.136871,35.870171 
	C124.625443,34.611885 124.114006,33.353603 123.561951,31.750710 
	C125.912773,33.820362 128.852631,35.907448 130.542572,38.740200 
	C132.258575,41.616631 132.741318,45.228779 133.375946,48.750542 
	C131.412613,46.575706 129.837463,44.169056 128.262329,41.762402 
	C128.183258,41.387245 128.104172,41.012089 127.978615,40.006386 
	C127.000389,38.207279 126.068634,37.038723 125.136871,35.870171 
z"/>
<path fill="#CCE1D4" opacity="1.000000" stroke="none" 
	d="
M109.975449,20.033886 
	C109.274857,19.278145 108.574257,18.522408 107.884140,17.431503 
	C113.637962,17.887726 117.457184,21.238352 119.717941,26.499203 
	C117.911690,25.870258 116.430267,24.971914 114.948845,24.073570 
	C114.178665,23.444197 113.408478,22.814819 112.309631,21.726879 
	C111.312454,20.856838 110.643951,20.445364 109.975449,20.033886 
z"/>
<path fill="#CCE1D4" opacity="1.000000" stroke="none" 
	d="
M101.939896,13.728632 
	C99.066170,13.368813 96.190315,12.638383 93.159676,12.154211 
	C92.302963,12.209275 91.601044,12.018084 90.457382,11.464279 
	C89.343002,10.388508 88.670341,9.675349 88.103668,8.735746 
	C88.479477,8.316783 88.749290,8.124266 89.019112,7.931747 
	C93.325333,9.740505 97.631546,11.549263 101.939896,13.728632 
z"/>
<path fill="#8CBD9D" opacity="1.000000" stroke="none" 
	d="
M45.916424,16.921398 
	C46.610554,15.877381 47.304684,14.833366 48.070152,13.476381 
	C50.817287,12.425959 53.493088,11.688505 56.772202,11.078777 
	C57.677753,11.351774 57.895367,11.578316 57.816086,12.176952 
	C53.708023,13.952319 49.812225,15.436858 45.916424,16.921398 
z"/>
<path fill="#CCE1D4" opacity="1.000000" stroke="none" 
	d="
M82.123703,9.757650 
	C81.495972,9.519236 80.868240,9.280822 80.121826,8.722124 
	C81.705925,7.634040 83.408714,6.866238 85.525002,6.414386 
	C85.958237,7.364031 85.977966,7.997727 85.979736,8.931827 
	C85.960510,9.431246 85.959244,9.630262 85.573341,9.806726 
	C84.167030,9.775332 83.145370,9.766492 82.123703,9.757650 
z"/>
<path fill="#F7FAF8" opacity="1.000000" stroke="none" 
	d="
M127.300812,103.929131 
	C125.975784,100.902573 125.024086,97.816452 124.036209,94.365173 
	C128.283203,96.263130 129.715546,100.110756 127.300812,103.929131 
z"/>
<path fill="#8CBD9D" opacity="1.000000" stroke="none" 
	d="
M128.201340,42.140717 
	C129.837463,44.169056 131.412613,46.575706 133.282623,49.127029 
	C133.631073,49.609852 133.684677,49.948006 133.461304,50.607399 
	C132.990906,50.954880 132.797485,50.981117 132.604050,51.007359 
	C131.116150,48.177917 129.628250,45.348476 128.201340,42.140717 
z"/>
<path fill="#F1F6F3" opacity="1.000000" stroke="none" 
	d="
M77.354263,8.033489 
	C75.398560,8.341720 73.161758,8.563682 70.513382,8.360899 
	C70.037018,7.314523 69.972237,6.692891 69.907463,6.071259 
	C72.296036,6.696579 74.684601,7.321900 77.354263,8.033489 
z"/>
<path fill="#CCE1D4" opacity="1.000000" stroke="none" 
	d="
M58.028351,11.886125 
	C57.895367,11.578316 57.677753,11.351774 57.172756,11.076972 
	C58.403675,9.980421 59.837353,9.013399 61.845261,8.105263 
	C62.716961,8.348969 62.911640,8.610330 62.858566,9.213047 
	C62.075546,10.194105 61.437489,10.910347 60.799431,11.626590 
	C60.799431,11.626590 60.389111,11.789333 59.870651,11.822833 
	C58.910912,11.866263 58.469631,11.876194 58.028351,11.886125 
z"/>
<path fill="#CCE1D4" opacity="1.000000" stroke="none" 
	d="
M69.512009,6.070632 
	C69.972237,6.692891 70.037018,7.314523 70.092499,8.246342 
	C69.946968,8.736142 69.810738,8.915755 69.012985,9.141069 
	C67.218468,9.097445 66.085480,9.008120 64.949280,8.564914 
	C65.009293,7.508982 65.072517,6.806930 65.135742,6.104877 
	C66.462677,6.093253 67.789612,6.081628 69.512009,6.070632 
z"/>
<path fill="#8CBD9D" opacity="1.000000" stroke="none" 
	d="
M114.989639,24.413879 
	C116.430267,24.971914 117.911690,25.870258 119.713379,26.866539 
	C120.291847,27.509445 120.550049,28.054415 120.690155,28.893894 
	C118.724846,27.710333 116.877647,26.232262 114.989639,24.413879 
z"/>
<path fill="#F7F9F8" opacity="1.000000" stroke="none" 
	d="
M34.043793,115.319893 
	C35.413284,114.645386 36.816807,114.330215 38.575489,113.946655 
	C38.211048,115.190292 37.491455,116.502327 36.771862,117.814362 
	C35.873852,117.102654 34.975842,116.390945 34.043793,115.319893 
z"/>
<path fill="#CCE1D4" opacity="1.000000" stroke="none" 
	d="
M132.719437,51.389656 
	C132.797485,50.981117 132.990906,50.954880 133.468796,50.865784 
	C134.434967,52.386124 135.116699,53.969326 135.412277,55.852432 
	C134.462814,56.005718 133.899475,55.859100 133.336151,55.712479 
	C133.169052,54.398968 133.001938,53.085457 132.719437,51.389656 
z"/>
<path fill="#8CBD9D" opacity="1.000000" stroke="none" 
	d="
M134.131714,80.822693 
	C134.238617,79.340485 134.630707,77.699715 135.322235,75.974663 
	C135.762802,76.348068 135.903931,76.805763 136.063141,77.626595 
	C135.526443,78.881203 134.971680,79.772667 134.131714,80.822693 
z"/>
<path fill="#CCE1D4" opacity="1.000000" stroke="none" 
	d="
M107.924011,16.732573 
	C106.530319,16.448563 105.150818,15.789481 103.640305,14.817116 
	C104.985596,15.121720 106.461906,15.739611 107.924011,16.732573 
z"/>
<path fill="#F1F6F3" opacity="1.000000" stroke="none" 
	d="
M79.073357,124.236084 
	C79.751572,124.973808 80.389938,126.103615 81.033348,127.606552 
	C80.370094,126.862511 79.701797,125.745338 79.073357,124.236084 
z"/>
<path fill="#F1F6F3" opacity="1.000000" stroke="none" 
	d="
M64.772079,6.072715 
	C65.072517,6.806930 65.009293,7.508982 65.007645,8.658587 
	C65.069229,9.106140 65.151787,9.310860 64.809906,9.175241 
	C63.979866,9.009158 63.491699,8.978694 63.003532,8.948231 
	C62.911640,8.610330 62.716961,8.348969 62.199440,8.044956 
	C62.789059,7.297360 63.598732,6.668956 64.772079,6.072715 
z"/>
<path fill="#F1F6F3" opacity="1.000000" stroke="none" 
	d="
M85.997696,8.631424 
	C85.977966,7.997727 85.958237,7.364031 85.901550,6.417488 
	C86.873222,6.484581 87.881859,6.864522 88.954803,7.588105 
	C88.749290,8.124266 88.479477,8.316783 87.764267,8.722955 
	C86.878487,8.834880 86.438087,8.733151 85.997696,8.631424 
z"/>
<path fill="#F7F9F8" opacity="1.000000" stroke="none" 
	d="
M15.065138,89.221939 
	C15.737985,89.662437 16.383221,90.473312 17.031727,91.638062 
	C16.369171,91.192062 15.703349,90.392189 15.065138,89.221939 
z"/>
<path fill="#8CBD9D" opacity="1.000000" stroke="none" 
	d="
M133.246338,56.015373 
	C133.899475,55.859100 134.462814,56.005718 135.306290,56.220535 
	C135.640869,56.658421 135.695312,57.028114 135.456604,57.684555 
	C134.952820,57.982597 134.742188,57.993885 134.531540,58.005165 
	C134.073212,57.442867 133.614868,56.880569 133.246338,56.015373 
z"/>
<path fill="#CCE1D4" opacity="1.000000" stroke="none" 
	d="
M134.652344,58.328472 
	C134.742188,57.993885 134.952820,57.982597 135.478790,57.965553 
	C136.057388,58.523911 136.320648,59.088024 136.058304,59.826805 
	C135.326874,60.007904 135.121063,60.014336 134.915237,60.020763 
	C134.867874,59.564434 134.820526,59.108105 134.652344,58.328472 
z"/>
<path fill="#8CBD9D" opacity="1.000000" stroke="none" 
	d="
M134.700317,60.176304 
	C135.121063,60.014336 135.326874,60.007904 135.842346,59.999729 
	C136.096481,60.480518 136.040955,60.963055 135.826248,61.774887 
	C135.273178,61.513401 134.879288,60.922623 134.700317,60.176304 
z"/>
<path fill="#F7FAF8" opacity="1.000000" stroke="none" 
	d="
M135.269562,85.968170 
	C135.149857,85.434731 135.325394,84.875229 135.759155,84.160980 
	C135.866501,84.651520 135.715668,85.296822 135.269562,85.968170 
z"/>
<path fill="#F1F6F3" opacity="1.000000" stroke="none" 
	d="
M89.121132,130.121414 
	C89.448288,129.580536 89.931465,129.290771 90.712036,129.014832 
	C90.432007,129.476608 89.854584,129.924561 89.121132,130.121414 
z"/>
<path fill="#61A376" opacity="1.000000" stroke="none" 
	d="
M57.816086,12.176952 
	C58.469631,11.876194 58.910912,11.866263 59.676037,11.926938 
	C59.268169,12.962975 58.741905,14.353677 57.770508,14.822950 
	C52.526939,17.356071 47.173008,19.660746 41.441956,22.033348 
	C41.026775,22.022495 40.940109,21.921873 41.091515,21.645023 
	C41.868813,20.311363 42.494709,19.254553 43.120605,18.197741 
	C43.850712,17.814592 44.580826,17.431446 45.613682,16.984848 
	C49.812225,15.436858 53.708023,13.952319 57.816086,12.176952 
z"/>
<path fill="#61A376" opacity="1.000000" stroke="none" 
	d="
M28.833824,31.833027 
	C29.686539,30.650179 30.539253,29.467329 31.997747,28.132626 
	C33.062756,27.979792 33.521984,27.978813 33.981213,27.977833 
	C30.876253,32.289581 27.771292,36.601330 24.317638,40.944088 
	C23.933043,40.771755 23.897137,40.568409 23.752670,40.073551 
	C24.373875,38.414124 25.103638,37.046204 26.333138,35.329842 
	C27.499859,33.931938 28.166842,32.882484 28.833824,31.833027 
z"/>
<path fill="#61A376" opacity="1.000000" stroke="none" 
	d="
M118.407921,65.817368 
	C118.316139,65.110909 118.224358,64.404449 118.356476,63.168011 
	C118.719139,62.092857 118.857903,61.547684 118.996658,61.002510 
	C119.799736,64.180038 120.602814,67.357559 120.864067,70.498993 
	C119.684135,68.914391 119.046028,67.365875 118.407921,65.817368 
z"/>
<path fill="#8CBD9D" opacity="1.000000" stroke="none" 
	d="
M34.188145,27.920938 
	C33.521984,27.978813 33.062756,27.979792 32.259216,27.951445 
	C33.749031,25.997820 35.583153,24.073521 37.708900,22.492926 
	C36.938889,24.483803 35.877254,26.130976 34.815620,27.778149 
	C34.815620,27.778149 34.395077,27.864042 34.188145,27.920938 
z"/>
<path fill="#61A376" opacity="1.000000" stroke="none" 
	d="
M35.172508,27.821239 
	C35.877254,26.130976 36.938889,24.483803 38.054466,22.512531 
	C38.108406,22.188435 38.482197,22.002745 39.025608,21.989292 
	C40.026051,21.957850 40.483078,21.939861 40.940109,21.921873 
	C40.940109,21.921873 41.026775,22.022495 41.073212,22.072330 
	C39.256233,24.036219 37.392815,25.950275 35.172508,27.821239 
z"/>
<path fill="#61A376" opacity="1.000000" stroke="none" 
	d="
M65.010864,9.012466 
	C66.085480,9.008120 67.218468,9.097445 68.749146,9.352570 
	C67.243896,10.516406 65.340965,11.514443 63.382591,11.996231 
	C63.935364,10.756939 64.543571,10.033899 65.151787,9.310860 
	C65.151787,9.310860 65.069229,9.106140 65.010864,9.012466 
z"/>
<path fill="#8CBD9D" opacity="1.000000" stroke="none" 
	d="
M118.278076,66.265892 
	C119.046028,67.365875 119.684135,68.914391 120.552353,70.710175 
	C120.805344,71.375359 120.828209,71.793266 120.818657,72.520905 
	C120.181541,72.921349 119.576851,73.012077 118.674515,73.152695 
	C118.300667,71.039864 118.224449,68.877136 118.278076,66.265892 
z"/>
<path fill="#61A376" opacity="1.000000" stroke="none" 
	d="
M82.125420,10.129406 
	C83.145370,9.766492 84.167030,9.775332 85.709442,10.081767 
	C86.819443,10.914609 87.408714,11.449857 87.997978,11.985105 
	C85.451248,13.823775 83.605804,12.887998 82.125420,10.129406 
z"/>
<path fill="#8CBD9D" opacity="1.000000" stroke="none" 
	d="
M105.254616,47.199940 
	C103.582024,47.041012 101.812065,46.528748 99.915985,45.705612 
	C101.578995,45.878693 103.368126,46.362652 105.254616,47.199940 
z"/>
<path fill="#8CBD9D" opacity="1.000000" stroke="none" 
	d="
M125.085258,36.226318 
	C126.068634,37.038723 127.000389,38.207279 127.908951,39.727345 
	C127.229134,40.020092 126.572510,39.961330 125.595146,39.848358 
	C125.202736,39.400970 125.131073,39.007801 125.018982,38.316540 
	C124.996918,37.539791 125.015282,37.061131 125.085258,36.226318 
z"/>
<path fill="#8CBD9D" opacity="1.000000" stroke="none" 
	d="
M110.183273,50.432045 
	C109.167557,50.075089 108.100403,49.403320 107.014389,48.382584 
	C108.040962,48.728153 109.086388,49.422691 110.183273,50.432045 
z"/>
<path fill="#8CBD9D" opacity="1.000000" stroke="none" 
	d="
M64.809906,9.175241 
	C64.543571,10.033899 63.935364,10.756939 63.164963,11.729724 
	C62.501728,11.958600 62.000675,11.937733 61.149529,11.771727 
	C61.437489,10.910347 62.075546,10.194105 62.858566,9.213047 
	C63.491699,8.978694 63.979866,9.009158 64.809906,9.175241 
z"/>
<path fill="#8CBD9D" opacity="1.000000" stroke="none" 
	d="
M88.370895,11.987476 
	C87.408714,11.449857 86.819443,10.914609 86.094086,10.104320 
	C85.959244,9.630262 85.960510,9.431246 85.979736,8.931827 
	C86.438087,8.733151 86.878487,8.834880 87.658279,8.949400 
	C88.670341,9.675349 89.343002,10.388508 90.101936,11.381600 
	C89.706749,11.770973 89.225273,11.880411 88.370895,11.987476 
z"/>
<path fill="#8CBD9D" opacity="1.000000" stroke="none" 
	d="
M117.009216,57.699142 
	C116.262146,57.312389 115.573250,56.586258 115.165405,55.443611 
	C115.648193,54.995876 115.849930,54.964664 116.051651,54.933456 
	C116.390228,55.742226 116.728806,56.550995 117.009216,57.699142 
z"/>
<path fill="#61A376" opacity="1.000000" stroke="none" 
	d="
M116.043159,54.611641 
	C115.849930,54.964664 115.648193,54.995876 115.147858,55.100826 
	C114.639519,54.843910 114.429779,54.513256 114.082077,53.917732 
	C114.304848,53.236782 114.665588,52.820705 115.026321,52.404633 
	C115.362434,53.033031 115.698547,53.661427 116.043159,54.611641 
z"/>
<path fill="#61A376" opacity="1.000000" stroke="none" 
	d="
M50.832680,45.165627 
	C50.643909,45.777370 50.121586,46.354034 49.280464,46.940548 
	C49.474155,46.343781 49.986641,45.737160 50.832680,45.165627 
z"/>
<path fill="#8CBD9D" opacity="1.000000" stroke="none" 
	d="
M118.757965,60.966309 
	C118.857903,61.547684 118.719139,62.092857 118.357391,62.810997 
	C117.938126,62.405617 117.741844,61.827274 117.792877,61.119675 
	C118.040199,60.990421 118.519272,60.930103 118.757965,60.966309 
z"/>
<path fill="#69A77D" opacity="1.000000" stroke="none" 
	d="
M107.173462,82.599274 
	C98.202850,88.776245 89.164291,85.078514 80.258484,83.433640 
	C79.090004,83.217819 77.293221,81.210037 77.388634,80.180634 
	C78.050049,73.044594 79.135323,65.947845 80.072861,58.443481 
	C81.167206,57.099804 82.273232,56.151131 83.966713,55.046913 
	C85.825760,53.993057 87.097351,53.094746 88.368942,52.196434 
	C89.335320,52.118504 90.301697,52.040577 92.037964,51.972733 
	C94.211845,51.929131 95.615852,51.875450 97.019852,51.821770 
	C97.463722,51.875641 97.907593,51.929516 98.888313,52.236004 
	C100.953362,52.971039 102.481567,53.453457 104.009766,53.935875 
	C106.322723,56.720795 108.635689,59.505714 111.010857,62.970486 
	C111.417000,64.420677 111.760933,65.191025 112.104866,65.961365 
	C112.069351,68.018036 112.033829,70.074699 111.740631,72.779297 
	C110.644974,75.616249 109.806992,77.805275 108.969009,79.994301 
	C108.452003,80.808548 107.934998,81.622795 107.173462,82.599274 
M107.078163,62.092991 
	C107.001274,61.434734 107.159172,60.594143 106.811363,60.146294 
	C103.137337,55.415459 90.063263,54.006073 85.509186,58.031563 
	C84.225746,59.166039 83.753586,61.218323 82.183853,63.058071 
	C81.565697,68.425659 80.535851,73.804237 80.678543,79.151527 
	C80.706902,80.214439 85.227310,81.155930 87.673721,82.159676 
	C87.824432,82.221519 87.944397,82.401772 88.092293,82.420761 
	C94.111252,83.193718 100.142212,84.576630 105.442764,79.850906 
	C110.380142,75.448982 111.347969,66.870483 107.078163,62.092991 
z"/>
<path fill="#BED9C8" opacity="1.000000" stroke="none" 
	d="
M87.956284,52.135262 
	C87.097351,53.094746 85.825760,53.993057 84.202408,54.823914 
	C84.071877,53.956627 84.293106,53.156796 84.792496,52.193054 
	C85.894974,52.044121 86.719292,52.059105 87.956284,52.135262 
z"/>
<path fill="#8CBD9D" opacity="1.000000" stroke="none" 
	d="
M116.016525,85.489166 
	C119.760681,85.234489 123.614151,85.358139 127.738449,85.801666 
	C124.048141,86.036865 120.086990,85.952179 116.016525,85.489166 
z"/>
<path fill="#BED9C8" opacity="1.000000" stroke="none" 
	d="
M109.318520,79.948738 
	C109.806992,77.805275 110.644974,75.616249 111.758881,73.219742 
	C111.245888,75.309242 110.456955,77.606209 109.318520,79.948738 
z"/>
<path fill="#8CBD9D" opacity="1.000000" stroke="none" 
	d="
M116.553894,79.962296 
	C116.589798,81.366982 116.293205,82.849846 115.941757,84.714279 
	C112.301758,83.166153 114.735870,81.634705 116.553894,79.962296 
z"/>
<path fill="#BED9C8" opacity="1.000000" stroke="none" 
	d="
M96.937950,51.483490 
	C95.615852,51.875450 94.211845,51.929131 92.393486,51.895027 
	C93.604767,51.586563 95.230408,51.365887 96.937950,51.483490 
z"/>
<path fill="#BED9C8" opacity="1.000000" stroke="none" 
	d="
M103.957146,53.607475 
	C102.481567,53.453457 100.953362,52.971039 99.223679,52.212662 
	C100.649643,52.384159 102.277084,52.831615 103.957146,53.607475 
z"/>
<path fill="#BED9C8" opacity="1.000000" stroke="none" 
	d="
M112.340958,65.764297 
	C111.760933,65.191025 111.417000,64.420677 111.130936,63.312950 
	C111.651543,63.839451 112.114288,64.703339 112.340958,65.764297 
z"/>
<path fill="#8CBD9D" opacity="1.000000" stroke="none" 
	d="
M130.182007,86.419495 
	C130.709412,85.777039 131.429749,85.349869 132.481705,84.894020 
	C132.000519,85.455147 131.187729,86.044960 130.182007,86.419495 
z"/>
<path fill="#CCE1D4" opacity="1.000000" stroke="none" 
	d="
M28.034073,106.621567 
	C27.091137,106.118050 26.123991,105.282921 25.229465,104.086090 
	C26.204678,104.579575 27.107271,105.434761 28.034073,106.621567 
z"/>
<path fill="#CCE1D4" opacity="1.000000" stroke="none" 
	d="
M30.091457,109.536995 
	C29.479746,109.370819 28.825411,108.900131 28.232012,108.078514 
	C28.878244,108.229218 29.463541,108.730850 30.091457,109.536995 
z"/>
<path fill="#7AB28F" opacity="1.000000" stroke="none" 
	d="
M116.330612,91.349991 
	C117.512871,92.286530 118.295486,93.169044 118.762924,94.426048 
	C114.966324,94.538673 111.484894,94.276802 108.003471,94.014938 
	C108.681206,93.328003 109.358932,92.641068 110.157494,91.691818 
	C112.162537,91.384995 114.046745,91.340477 116.330612,91.349991 
z"/>
<path fill="#589A69" opacity="1.000000" stroke="none" 
	d="
M107.687286,94.054077 
	C111.484894,94.276802 114.966324,94.538673 118.858307,94.718452 
	C124.155861,96.780891 124.863953,102.395676 120.464127,108.535149 
	C117.653030,110.955811 115.349770,112.982323 112.597641,115.005768 
	C110.943100,114.926964 109.737434,114.851234 108.531769,114.775505 
	C110.886398,112.005714 113.241028,109.235909 116.209099,106.194580 
	C117.196266,103.595978 118.404808,100.949280 117.675514,99.044548 
	C117.107773,97.561790 113.798393,95.874245 112.299423,96.310692 
	C110.291260,96.895424 108.854439,99.442368 107.172302,101.146797 
	C107.172302,101.146797 107.049606,101.054649 106.687119,101.051369 
	C105.502289,101.074287 104.679947,101.100487 103.857605,101.126686 
	C103.781555,100.660629 103.705505,100.194580 103.946426,99.231415 
	C104.528801,97.848541 104.794197,96.962761 105.059593,96.076981 
	C105.830093,95.415733 106.600594,94.754478 107.687286,94.054077 
z"/>
<path fill="#7AB28F" opacity="1.000000" stroke="none" 
	d="
M113.046509,115.008835 
	C115.349770,112.982323 117.653030,110.955811 120.282303,108.879761 
	C120.690414,109.028015 120.772507,109.225800 120.953064,109.729660 
	C120.803970,110.535835 120.556404,111.035934 120.077225,111.696213 
	C118.672821,113.259964 117.500038,114.663536 116.327263,116.067108 
	C117.842491,116.713387 119.420219,117.246498 120.854828,118.038765 
	C122.205956,118.784950 123.406235,119.804268 124.672882,120.703430 
	C123.924446,121.703468 123.164368,123.576523 122.429413,123.566719 
	C116.010910,123.481056 109.596909,123.058647 103.607208,122.349281 
	C109.829018,121.962357 115.625191,121.962357 121.421364,121.962357 
	C121.436951,121.412025 121.452530,120.861694 121.468117,120.311363 
	C118.837303,120.089760 116.206497,119.868149 113.278076,119.621468 
	C113.192513,117.917076 113.119507,116.462952 113.046509,115.008835 
z"/>
<path fill="#49935F" opacity="1.000000" stroke="none" 
	d="
M112.597641,115.005760 
	C113.119507,116.462952 113.192513,117.917076 113.278076,119.621468 
	C116.206497,119.868149 118.837303,120.089760 121.468117,120.311363 
	C121.452530,120.861694 121.436951,121.412025 121.421364,121.962357 
	C115.625191,121.962357 109.829018,121.962357 103.576324,121.939285 
	C104.740021,119.637634 106.360237,117.359055 108.256104,114.927979 
	C109.737434,114.851234 110.943100,114.926964 112.597641,115.005760 
z"/>
<path fill="#7AB28F" opacity="1.000000" stroke="none" 
	d="
M107.518204,101.087906 
	C108.854439,99.442368 110.291260,96.895424 112.299423,96.310692 
	C113.798393,95.874245 117.107773,97.561790 117.675514,99.044548 
	C118.404808,100.949280 117.196266,103.595978 116.479294,106.001541 
	C117.373878,100.407166 115.582962,97.016472 111.945999,98.286896 
	C110.448769,98.809883 109.216751,100.092125 107.518204,101.087906 
z"/>
<path fill="#7AB28F" opacity="1.000000" stroke="none" 
	d="
M103.921112,101.452499 
	C104.679947,101.100487 105.502289,101.074287 106.733253,101.112671 
	C106.089455,101.377609 105.037041,101.577965 103.921112,101.452499 
z"/>
<path fill="#7AB28F" opacity="1.000000" stroke="none" 
	d="
M104.770615,96.152931 
	C104.794197,96.962761 104.528801,97.848541 103.927666,98.877266 
	C103.888489,98.089775 104.185059,97.159325 104.770615,96.152931 
z"/>
<path fill="#589A69" opacity="1.000000" stroke="none" 
	d="
M90.619614,93.132256 
	C91.630745,95.035057 92.700066,96.818596 92.754501,98.632591 
	C92.983131,106.251381 92.692574,113.888763 93.026939,121.500229 
	C93.221252,125.923462 90.185410,126.418945 87.337776,126.803871 
	C84.058945,127.247078 83.147491,124.805855 83.138664,122.007545 
	C83.113571,114.050835 83.139259,106.093964 83.109589,98.137283 
	C83.090714,93.075851 86.362816,92.671196 90.619614,93.132256 
z"/>
<path fill="#8CBD9D" opacity="1.000000" stroke="none" 
	d="
M41.091515,21.645023 
	C40.483078,21.939861 40.026051,21.957850 39.226463,21.932655 
	C40.064835,20.635923 41.245766,19.382370 42.773651,18.163280 
	C42.494709,19.254553 41.868813,20.311363 41.091515,21.645023 
z"/>
<path fill="#8CBD9D" opacity="1.000000" stroke="none" 
	d="
M28.512257,31.918840 
	C28.166842,32.882484 27.499859,33.931938 26.503799,35.044262 
	C26.846710,34.072971 27.518700,33.038811 28.512257,31.918840 
z"/>
<path fill="#8CBD9D" opacity="1.000000" stroke="none" 
	d="
M110.015656,20.362322 
	C110.643951,20.445364 111.312454,20.856838 112.049210,21.579380 
	C111.430252,21.490551 110.743050,21.090652 110.015656,20.362322 
z"/>
<path fill="#428D55" opacity="1.000000" stroke="none" 
	d="
M107.091522,62.846302 
	C111.347969,66.870483 110.380142,75.448982 105.442764,79.850906 
	C100.142212,84.576630 94.111252,83.193718 88.092293,82.420761 
	C87.944397,82.401772 87.824432,82.221519 87.673721,82.159676 
	C85.227310,81.155930 80.706902,80.214439 80.678543,79.151527 
	C80.535851,73.804237 81.565697,68.425659 82.627670,63.323746 
	C84.094475,64.085251 85.117477,64.581078 86.061081,65.432915 
	C85.677910,68.016479 84.402794,70.775063 85.270470,72.362190 
	C87.135849,75.774307 89.725006,72.807884 92.160446,72.326202 
	C94.991730,72.759094 97.653358,73.001099 100.311272,72.965416 
	C102.236992,72.939568 104.157776,72.545586 106.080765,72.315765 
	C105.719048,70.216408 105.357338,68.117043 105.176819,65.746643 
	C105.935852,64.599167 106.513687,63.722736 107.091522,62.846302 
z"/>
<path fill="#418C53" opacity="1.000000" stroke="none" 
	d="
M86.140472,65.076912 
	C85.117477,64.581078 84.094475,64.085251 82.990402,63.219528 
	C83.753586,61.218323 84.225746,59.166039 85.509186,58.031563 
	C90.063263,54.006073 103.137337,55.415459 106.811363,60.146294 
	C107.159172,60.594143 107.001274,61.434734 107.084839,62.469646 
	C106.513687,63.722736 105.935852,64.599167 104.812469,65.751404 
	C103.172943,66.342064 102.078972,66.656929 100.593796,66.970703 
	C95.597023,65.731003 90.569656,67.626129 86.140472,65.076912 
z"/>
<path fill="#69A77D" opacity="1.000000" stroke="none" 
	d="
M86.061081,65.432915 
	C90.569656,67.626129 95.597023,65.731003 100.547241,67.314247 
	C100.118362,68.015434 99.336243,68.354584 98.572945,68.731819 
	C96.374298,69.818428 94.183235,70.920425 91.989197,72.016373 
	C89.725006,72.807884 87.135849,75.774307 85.270470,72.362190 
	C84.402794,70.775063 85.677910,68.016479 86.061081,65.432915 
z"/>
<path fill="#7AB28F" opacity="1.000000" stroke="none" 
	d="
M92.160446,72.326202 
	C94.183235,70.920425 96.374298,69.818428 98.572945,68.731819 
	C99.336243,68.354584 100.118362,68.015434 100.938431,67.315338 
	C102.078972,66.656929 103.172943,66.342064 104.631271,66.022446 
	C105.357338,68.117043 105.719048,70.216408 106.080765,72.315765 
	C104.157776,72.545586 102.236992,72.939568 100.311272,72.965416 
	C97.653358,73.001099 94.991730,72.759094 92.160446,72.326202 
z"/>
</svg>