<svg version="1.1" id="Layer_1" xmlns="http://www.w3.org/2000/svg" xmlns:xlink="http://www.w3.org/1999/xlink" x="0px" y="0px"
	 width="100%" viewBox="0 0 868 952" enable-background="new 0 0 868 952" xml:space="preserve">
<path fill="#FFFFFF" opacity="1.000000" stroke="none" 
	d="
M1.000000,419.000000 
	C1.000000,279.682770 1.000000,140.365555 1.000000,1.024167 
	C290.283783,1.024167 579.567566,1.024167 868.925659,1.024167 
	C868.925659,318.247040 868.925659,635.494141 868.925659,952.870605 
	C579.786438,952.870605 290.572784,952.870605 1.000000,952.870605 
	C1.000000,789.305481 1.000000,625.610657 1.362175,461.676025 
	C4.105613,479.530487 5.480083,497.825562 9.041039,515.684631 
	C25.135303,596.401428 63.953236,664.643188 123.671509,721.115723 
	C126.491348,723.782227 129.469452,726.281372 133.000000,729.414124 
	C133.000000,726.572021 133.000000,724.771606 133.000000,722.971252 
	C133.000000,630.147644 132.991638,537.324036 133.006378,444.500427 
	C133.009720,423.464783 136.282394,402.916748 145.233978,383.837799 
	C172.642578,325.420380 218.716187,293.959045 283.402435,293.082794 
	C360.380249,292.040039 437.383057,292.790466 514.374817,292.908997 
	C522.168579,292.920990 530.023560,293.480438 537.742432,294.557404 
	C565.026306,298.364136 589.334167,309.334229 610.582397,326.710693 
	C629.690918,342.337372 644.026978,361.788574 653.715576,384.502014 
	C661.824280,403.511627 665.701843,423.523834 665.438049,444.136108 
	C665.158508,465.983582 660.391479,486.878754 651.005432,506.803497 
	C639.159424,531.950012 621.632690,552.128784 598.759155,567.511536 
	C572.225891,585.355591 542.638733,593.262573 510.677521,592.892212 
	C486.683258,592.614136 462.683197,592.837280 438.685699,592.837280 
	C436.914062,592.837280 435.142426,592.837280 433.231384,592.837280 
	C433.231384,669.152893 433.231384,744.905029 433.231384,820.972839 
	C440.861664,819.668640 448.234680,818.515137 455.565826,817.138794 
	C525.786072,803.955566 587.916748,773.899963 640.756226,725.876892 
	C724.707581,649.578186 766.788757,553.967896 768.872986,440.772980 
	C769.382141,413.123505 766.105835,385.690460 760.096558,358.634735 
	C740.623718,270.961060 696.308533,198.335571 626.767578,141.666489 
	C564.222595,90.698433 492.251923,62.548435 411.648254,56.805313 
	C377.267914,54.355663 343.115570,56.232510 309.380005,63.214283 
	C237.055527,78.182274 173.599197,110.573448 120.310471,161.894073 
	C51.144806,228.505249 12.065527,309.844025 2.832555,405.477661 
	C2.395759,410.001892 1.618633,414.493317 1.000000,419.000000 
M577.184875,532.714294 
	C611.525635,505.078369 627.028137,469.274994 620.541626,425.651062 
	C611.211731,362.903412 553.100159,321.666718 490.408508,331.896667 
	C427.996521,342.080963 385.051575,404.790222 399.899445,466.158142 
	C403.323883,480.311615 403.205475,492.590851 397.249359,505.315186 
	C396.900757,506.059967 396.667114,506.860291 396.402130,507.642303 
	C392.917175,517.926575 389.436279,528.212219 385.772247,539.035400 
	C403.200287,537.449036 419.893585,535.818298 436.612030,534.507812 
	C439.713898,534.264709 443.546692,534.336792 445.979431,535.908447 
	C487.654877,562.831604 536.394287,561.904419 577.184875,532.714294 
z"/>
<path fill="#3C7E44" opacity="1.000000" stroke="none" 
	d="
M1.000000,419.468658 
	C1.618633,414.493317 2.395759,410.001892 2.832555,405.477661 
	C12.065527,309.844025 51.144806,228.505249 120.310471,161.894073 
	C173.599197,110.573448 237.055527,78.182274 309.380005,63.214283 
	C343.115570,56.232510 377.267914,54.355663 411.648254,56.805313 
	C492.251923,62.548435 564.222595,90.698433 626.767578,141.666489 
	C696.308533,198.335571 740.623718,270.961060 760.096558,358.634735 
	C766.105835,385.690460 769.382141,413.123505 768.872986,440.772980 
	C766.788757,553.967896 724.707581,649.578186 640.756226,725.876892 
	C587.916748,773.899963 525.786072,803.955566 455.565826,817.138794 
	C448.234680,818.515137 440.861664,819.668640 433.231384,820.972839 
	C433.231384,744.905029 433.231384,669.152893 433.231384,592.837280 
	C435.142426,592.837280 436.914062,592.837280 438.685699,592.837280 
	C462.683197,592.837280 486.683258,592.614136 510.677521,592.892212 
	C542.638733,593.262573 572.225891,585.355591 598.759155,567.511536 
	C621.632690,552.128784 639.159424,531.950012 651.005432,506.803497 
	C660.391479,486.878754 665.158508,465.983582 665.438049,444.136108 
	C665.701843,423.523834 661.824280,403.511627 653.715576,384.502014 
	C644.026978,361.788574 629.690918,342.337372 610.582397,326.710693 
	C589.334167,309.334229 565.026306,298.364136 537.742432,294.557404 
	C530.023560,293.480438 522.168579,292.920990 514.374817,292.908997 
	C437.383057,292.790466 360.380249,292.040039 283.402435,293.082794 
	C218.716187,293.959045 172.642578,325.420380 145.233978,383.837799 
	C136.282394,402.916748 133.009720,423.464783 133.006378,444.500427 
	C132.991638,537.324036 133.000000,630.147644 133.000000,722.971252 
	C133.000000,724.771606 133.000000,726.572021 133.000000,729.414124 
	C129.469452,726.281372 126.491348,723.782227 123.671509,721.115723 
	C63.953236,664.643188 25.135303,596.401428 9.041039,515.684631 
	C5.480083,497.825562 4.105613,479.530487 1.362175,461.218079 
	C1.000000,447.312439 1.000000,433.624878 1.000000,419.468658 
z"/>
<path fill="#3D7E45" opacity="1.000000" stroke="none" 
	d="
M576.893799,532.922058 
	C536.394287,561.904419 487.654877,562.831604 445.979431,535.908447 
	C443.546692,534.336792 439.713898,534.264709 436.612030,534.507812 
	C419.893585,535.818298 403.200287,537.449036 385.772247,539.035400 
	C389.436279,528.212219 392.917175,517.926575 396.402130,507.642303 
	C396.667114,506.860291 396.900757,506.059967 397.249359,505.315186 
	C403.205475,492.590851 403.323883,480.311615 399.899445,466.158142 
	C385.051575,404.790222 427.996521,342.080963 490.408508,331.896667 
	C553.100159,321.666718 611.211731,362.903412 620.541626,425.651062 
	C627.028137,469.274994 611.525635,505.078369 576.893799,532.922058 
M459.931274,460.992615 
	C466.061676,463.288727 471.731659,462.636841 476.451752,457.901031 
	C480.779694,453.558563 482.212860,448.318237 480.125854,442.386108 
	C478.052521,436.492767 473.743347,433.265533 467.658539,432.385223 
	C461.020996,431.424896 454.423431,435.537170 451.965027,442.045349 
	C449.291290,449.123596 451.860382,455.739349 459.931274,460.992615 
M518.642700,432.725494 
	C510.179688,431.428375 502.813049,435.953552 500.981934,443.574158 
	C499.079163,451.492798 503.586761,459.486206 511.206970,461.706390 
	C518.889099,463.944641 527.240784,459.628296 529.733398,452.131592 
	C532.461670,443.926270 528.283386,436.136078 518.642700,432.725494 
M569.559570,461.606323 
	C570.611938,461.112122 571.724854,460.715576 572.706787,460.107666 
	C578.555786,456.486359 581.293945,449.596649 579.447754,443.290009 
	C577.512573,436.679352 571.763611,432.270294 565.045044,432.244049 
	C558.177551,432.217224 552.254272,436.888794 550.413025,443.676056 
	C547.899719,452.941010 556.074646,464.636658 569.559570,461.606323 
z"/>
<path fill="#FCFDFC" opacity="1.000000" stroke="none" 
	d="
M459.567566,460.839417 
	C451.860382,455.739349 449.291290,449.123596 451.965027,442.045349 
	C454.423431,435.537170 461.020996,431.424896 467.658539,432.385223 
	C473.743347,433.265533 478.052521,436.492767 480.125854,442.386108 
	C482.212860,448.318237 480.779694,453.558563 476.451752,457.901031 
	C471.731659,462.636841 466.061676,463.288727 459.567566,460.839417 
z"/>
<path fill="#FCFDFC" opacity="1.000000" stroke="none" 
	d="
M519.027222,432.806274 
	C528.283386,436.136078 532.461670,443.926270 529.733398,452.131592 
	C527.240784,459.628296 518.889099,463.944641 511.206970,461.706390 
	C503.586761,459.486206 499.079163,451.492798 500.981934,443.574158 
	C502.813049,435.953552 510.179688,431.428375 519.027222,432.806274 
z"/>
<path fill="#FCFDFC" opacity="1.000000" stroke="none" 
	d="
M569.165222,461.729858 
	C556.074646,464.636658 547.899719,452.941010 550.413025,443.676056 
	C552.254272,436.888794 558.177551,432.217224 565.045044,432.244049 
	C571.763611,432.270294 577.512573,436.679352 579.447754,443.290009 
	C581.293945,449.596649 578.555786,456.486359 572.706787,460.107666 
	C571.724854,460.715576 570.611938,461.112122 569.165222,461.729858 
z"/>
</svg>